<?xml version="1.0" standalone="no"?>
<!DOCTYPE svg PUBLIC "-//W3C//DTD SVG 20010904//EN"
 "http://www.w3.org/TR/2001/REC-SVG-20010904/DTD/svg10.dtd">
<svg version="1.0" xmlns="http://www.w3.org/2000/svg"
 width="1024.000000pt" height="1024.000000pt" viewBox="0 0 1024.000000 1024.000000"
 preserveAspectRatio="xMidYMid meet">
<metadata>
Created by potrace 1.16, written by Peter Selinger 2001-2019
</metadata>
<g transform="translate(0.000000,1024.000000) scale(0.100000,-0.100000)"
fill="#000000" stroke="none">
<path d="M3193 7613 c15 -2 39 -2 55 0 15 2 2 4 -28 4 -30 0 -43 -2 -27 -4z"/>
<path d="M3787 7613 c260 -2 686 -2 945 0 260 1 48 2 -472 2 -520 0 -732 -1
-473 -2z"/>
<path d="M5823 7613 c229 -2 605 -2 835 0 229 1 41 2 -418 2 -459 0 -647 -1
-417 -2z"/>
<path d="M3045 7510 l-20 -22 25 -20 c14 -11 24 -25 22 -30 -1 -5 2 -7 6 -4 5
3 18 -4 28 -17 19 -21 19 -21 -1 -7 -18 14 -19 14 -6 -2 7 -10 17 -16 21 -13
11 7 61 -35 55 -45 -3 -5 -1 -11 5 -15 6 -4 8 -11 5 -16 -3 -5 1 -6 9 -3 9 3
13 11 9 17 -3 5 37 -25 90 -68 54 -42 97 -80 97 -83 0 -3 -10 3 -22 14 -23 19
-23 19 -5 -2 9 -11 17 -27 17 -35 1 -10 4 -9 11 4 15 26 39 4 33 -31 -3 -15
-2 -23 2 -19 4 4 18 -3 31 -15 19 -17 26 -19 36 -9 9 10 8 11 -8 6 -16 -6 -17
-5 -5 4 12 9 20 6 36 -13 12 -14 24 -23 26 -20 3 2 13 -6 24 -18 12 -13 13
-18 4 -13 -13 8 -13 7 -1 -8 16 -20 36 -23 25 -4 -4 6 2 3 14 -7 26 -23 29
-34 5 -15 -17 13 -17 13 0 -7 9 -11 14 -24 10 -29 -5 -4 -1 -5 7 -3 8 3 14 12
12 19 -2 8 13 -2 32 -20 45 -43 48 -55 4 -15 -18 16 -25 20 -15 8 9 -11 14
-24 10 -29 -5 -4 -3 -5 4 -1 6 3 15 1 18 -5 4 -5 13 -8 20 -5 19 7 99 -79 91
-99 -3 -9 -2 -13 3 -10 5 3 13 0 16 -6 4 -5 13 -8 20 -5 16 6 67 -46 63 -64
-2 -7 4 -14 13 -15 12 -2 18 8 22 39 8 55 -9 311 -23 361 -47 162 -193 299
-382 358 -106 34 -181 45 -343 53 -126 6 -131 6 -150 -16z m429 -402 c-8 -12
-27 6 -30 28 -2 14 0 14 17 -1 10 -10 16 -22 13 -27z"/>
<path d="M5060 6360 l0 -1173 383 6 c281 4 401 10 452 21 269 57 448 194 566
431 60 123 83 211 103 397 15 148 22 178 37 178 26 0 31 -62 25 -300 -11 -484
-66 -824 -191 -1188 -79 -231 -221 -532 -251 -532 -19 0 -24 36 -24 185 0 155
-12 220 -59 320 -79 170 -237 281 -476 335 -27 6 -166 14 -307 17 l-258 6 0
-1092 c0 -968 2 -1091 15 -1091 30 0 312 98 449 156 l138 59 -58 6 c-134 13
-214 96 -214 219 0 107 36 146 182 199 361 132 730 396 938 671 40 53 57 72
45 50 -5 -9 -4 -12 1 -7 5 5 9 16 9 25 0 9 6 16 13 14 8 -1 11 2 7 8 -3 6 2
21 12 34 16 20 20 21 32 8 12 -13 16 -11 27 9 7 13 13 18 14 11 0 -7 4 -11 9
-7 6 3 15 -3 21 -14 7 -14 7 -22 0 -26 -6 -4 -10 -3 -9 2 3 20 -2 34 -11 28
-6 -4 -8 -11 -5 -16 3 -5 -2 -6 -11 -2 -13 5 -15 3 -9 -8 6 -11 5 -12 -6 -1
-18 16 -34 16 -20 -1 6 -8 8 -17 5 -20 -13 -13 68 2 84 15 9 8 28 14 42 14 21
-1 25 -6 25 -31 0 -16 4 -36 9 -43 4 -7 5 -16 2 -19 -3 -4 -6 -1 -6 6 0 7 -5
9 -11 6 -6 -4 -8 -14 -5 -24 5 -12 3 -12 -9 3 -8 10 -12 22 -10 27 3 4 0 11
-6 15 -9 5 -10 -1 -5 -22 4 -16 7 -34 8 -41 2 -17 38 -11 38 6 0 11 4 10 14
-4 8 -11 12 -23 10 -27 -3 -5 -1 -8 4 -8 6 0 13 -7 16 -16 3 -8 2 -13 -3 -9
-5 3 -11 2 -14 -2 -2 -5 -2 -2 -1 4 2 7 -2 12 -9 10 -7 -1 -11 4 -9 12 2 8 -3
11 -11 8 -17 -6 -42 8 -42 25 -1 7 -7 12 -14 10 -9 -2 -11 3 -7 13 3 9 2 13
-3 10 -5 -3 -12 -1 -16 5 -3 5 1 10 10 10 9 0 13 5 10 10 -3 6 -1 10 5 10 6 0
8 5 5 11 -5 6 -12 4 -21 -8 -8 -10 -14 -13 -13 -8 3 23 -2 27 -17 14 -13 -10
-17 -10 -25 2 -6 10 -9 11 -9 1 0 -7 -4 -11 -9 -7 -5 3 -12 1 -15 -4 -4 -5 -2
-12 4 -16 16 -10 2 -24 -20 -20 -22 4 -36 -10 -20 -20 8 -5 8 -11 0 -20 -15
-18 12 -14 35 5 21 17 43 21 51 9 3 -5 10 -7 15 -4 5 4 9 2 9 -4 0 -14 -18
-23 -24 -12 -11 16 -39 5 -35 -14 1 -3 2 -11 3 -17 1 -7 11 -12 24 -12 16 1
21 -3 18 -12 -3 -7 -1 -16 5 -20 7 -4 6 -10 -1 -19 -12 -14 5 -32 30 -31 19 1
48 -26 42 -39 -3 -5 -1 -6 3 -2 15 13 14 36 -1 30 -14 -5 -15 -2 -18 34 -1 21
29 26 45 7 15 -18 41 0 32 23 -4 9 -2 14 3 10 6 -3 16 3 23 15 10 16 10 19 -1
12 -7 -4 -1 4 15 19 28 27 36 43 15 31 -7 -4 -2 3 11 16 34 33 153 284 199
420 180 529 171 1111 -25 1605 -208 525 -626 945 -1150 1159 -257 105 -398
136 -655 143 l-198 6 0 -1173z m873 -1905 c0 -63 -6 -124 -17 -165 -26 -99
-97 -236 -170 -326 -74 -93 -217 -216 -204 -176 2 4 7 6 12 4 5 -2 4 3 -2 11
-7 8 -8 18 -4 22 4 5 1 5 -7 0 -11 -6 -13 -2 -9 18 3 15 2 24 -2 22 -4 -2 -6
17 -5 43 1 26 -3 53 -9 61 -8 11 -8 13 2 7 6 -4 12 -2 12 3 0 6 -4 12 -10 12
-5 1 -14 3 -20 4 -5 1 -13 3 -16 4 -3 0 -2 6 1 11 5 8 11 8 19 1 10 -8 13 -4
11 17 -1 15 3 30 9 34 7 5 6 8 -3 8 -11 0 -11 3 0 17 8 9 9 14 3 10 -6 -3 -11
0 -11 8 0 8 4 12 9 9 7 -5 13 47 9 87 -1 10 24 32 66 57 136 82 240 189 293
301 l24 53 9 -28 c5 -16 10 -74 10 -129z m748 -92 c13 -16 12 -17 -3 -4 -10 7
-18 15 -18 17 0 8 8 3 21 -13z m-35 -18 c1 -8 -1 -15 -6 -15 -10 0 -20 26 -13
34 8 8 16 -1 19 -19z m93 -9 c11 -14 6 -15 -27 -7 -4 1 8 21 12 21 2 0 9 -6
15 -14z m-43 -93 c-4 -24 23 -65 37 -56 6 3 7 1 3 -5 -4 -7 6 -20 27 -32 34
-20 63 -65 48 -75 -5 -2 -15 3 -22 12 -12 14 -12 16 0 8 10 -5 12 -4 7 4 -6 9
-11 9 -22 0 -8 -6 -14 -8 -14 -3 0 4 -6 2 -12 -4 -7 -7 -13 -18 -13 -24 0 -13
-33 -20 -40 -8 -3 5 -1 11 5 15 6 4 7 12 3 18 -10 17 -11 60 0 74 5 7 4 19 -2
30 -7 12 -10 13 -11 4 0 -11 -3 -11 -17 0 -20 18 -16 18 -50 -11 -15 -14 -25
-21 -21 -16 4 5 3 15 -3 22 -7 9 -6 12 8 9 27 -4 46 14 32 31 -8 10 -5 12 15
8 13 -2 28 0 31 6 9 15 14 12 11 -7z m156 -47 c7 4 8 2 4 -5 -10 -15 -26 -4
-25 17 1 15 2 15 6 -1 2 -9 9 -14 15 -11z m-170 -44 c7 -7 10 -12 8 -13 -3 0
-13 -2 -23 -4 -11 -2 -16 -1 -13 2 3 4 1 12 -5 19 -13 16 16 13 33 -4z m-1187
-247 c6 0 13 4 18 10 4 5 6 0 4 -12 -2 -12 -6 -26 -10 -29 -4 -4 -2 -13 5 -21
6 -7 8 -16 4 -20 -3 -3 -6 -1 -6 6 0 7 -5 9 -10 6 -6 -4 -9 -1 -8 7 2 7 -3 12
-11 10 -11 -2 -12 0 -3 11 10 11 9 17 -1 26 -8 6 -18 7 -22 3 -5 -4 -5 -1 -1
6 4 7 13 9 19 5 7 -4 17 -8 22 -8z"/>
<path d="M6675 4231 c-3 -5 -2 -12 3 -15 5 -3 9 1 9 9 0 17 -3 19 -12 6z"/>
<path d="M6720 4145 c-7 -8 -9 -15 -5 -15 4 0 2 -6 -4 -14 -9 -10 -9 -16 -1
-21 8 -5 8 -11 1 -19 -8 -9 -7 -13 4 -13 8 0 13 3 10 5 -3 3 3 14 12 25 10 10
18 22 18 26 0 3 4 5 10 3 5 -2 1 6 -9 17 -23 25 -21 25 -36 6z m23 -18 c-4 -7
-8 -15 -9 -19 -1 -5 -2 -11 -3 -14 0 -3 -6 -2 -11 1 -6 4 -7 12 -3 18 4 7 8
15 9 20 1 4 2 10 3 13 0 3 6 2 11 -1 6 -4 7 -12 3 -18z"/>
<path d="M5493 3885 c0 -8 4 -12 9 -9 5 3 6 10 3 15 -9 13 -12 11 -12 -6z"/>
<path d="M5850 7462 c436 -159 876 -507 1179 -932 420 -589 667 -1450 637
-2220 -21 -543 -122 -971 -323 -1369 l-73 -146 81 80 c426 419 727 965 859
1560 56 253 65 342 65 685 0 343 -9 432 -65 685 -107 481 -319 921 -629 1307
l-46 58 -5 -563 c-4 -461 -7 -562 -18 -562 -9 0 -29 45 -53 119 -48 148 -121
296 -209 429 -89 136 -135 192 -255 316 -332 343 -728 537 -1195 585 -53 5
-52 4 50 -32z"/>
<path d="M3010 7471 c0 -16 31 -42 41 -35 6 4 3 14 -7 25 -18 20 -34 25 -34
10z m31 -18 c13 -16 12 -17 -3 -4 -17 13 -22 21 -14 21 2 0 10 -8 17 -17z"/>
<path d="M3143 7367 c0 -8 6 -14 14 -14 9 0 10 4 2 14 -6 7 -12 13 -14 13 -1
0 -2 -6 -2 -13z"/>
<path d="M3219 7307 c6 -8 7 -18 3 -22 -4 -5 -1 -5 6 -1 10 6 10 11 1 22 -6 8
-14 14 -16 14 -3 0 0 -6 6 -13z"/>
<path d="M3254 7275 c2 -16 26 -44 26 -31 0 5 11 1 25 -8 37 -24 30 -14 -14
22 -25 20 -38 26 -37 17z"/>
<path d="M3531 7051 c-10 -6 -9 -10 3 -14 8 -3 18 -2 21 3 8 13 -9 20 -24 11z"/>
<path d="M3743 6882 c15 -16 25 -31 22 -35 -3 -4 -2 -5 2 -2 3 3 13 -1 22 -7
9 -7 -2 7 -24 30 -21 23 -41 42 -44 42 -3 0 7 -13 22 -28z"/>
<path d="M3846 6775 c-4 -10 -2 -14 5 -9 6 4 15 0 20 -7 5 -8 9 -9 9 -3 0 6
-6 17 -14 23 -11 9 -15 8 -20 -4z"/>
<path d="M3915 6690 c3 -5 8 -10 11 -10 2 0 4 5 4 10 0 6 -5 10 -11 10 -5 0
-7 -4 -4 -10z"/>
<path d="M3934 6365 c0 -165 2 -234 3 -153 2 81 2 216 0 300 -1 84 -3 18 -3
-147z"/>
<path d="M3559 6243 c-13 -16 -12 -17 4 -4 9 7 17 15 17 17 0 8 -8 3 -21 -13z"/>
<path d="M3709 6191 c10 -7 11 -9 0 -13 -10 -3 -10 -14 0 -54 32 -125 135
-361 210 -478 l31 -50 0 75 c0 61 -5 85 -29 136 -27 57 -27 84 -1 68 6 -3 10
-1 10 6 0 7 -10 9 -24 7 -18 -4 -23 -1 -18 10 4 11 2 13 -9 7 -11 -7 -12 -6
-3 6 9 11 7 19 -9 34 l-20 20 12 -22 c6 -13 9 -23 7 -23 -3 0 -13 14 -22 31
-8 17 -11 28 -5 25 7 -4 8 -1 5 8 -3 9 -10 14 -14 11 -5 -3 -12 0 -16 6 -4 7
-3 9 4 5 6 -3 16 2 22 11 10 16 11 16 5 -2 -5 -16 -4 -18 7 -7 10 10 8 17 -12
35 -13 12 -18 14 -11 5 13 -17 2 -26 -13 -10 -4 4 -12 8 -17 8 -5 1 -12 2 -15
3 -4 0 -1 7 5 15 16 19 3 50 -15 36 -10 -9 -18 -3 -37 27 -15 23 -21 42 -16
49 10 12 2 24 -15 24 -6 0 -5 -4 3 -9z"/>
<path d="M3023 6141 c0 -9 -17 -59 -36 -111 -37 -101 -77 -275 -77 -335 0 -20
-3 -34 -7 -32 -5 3 -8 -35 -8 -83 0 -48 3 -86 8 -83 4 2 7 -11 7 -29 0 -46 35
-186 64 -258 14 -34 43 -90 65 -125 22 -34 38 -66 35 -69 -2 -3 -1 -4 2 -1 8
6 80 -87 76 -98 -1 -5 1 -6 6 -3 10 6 71 -53 72 -69 0 -5 3 -10 8 -10 16 0 32
-17 26 -28 -4 -7 -4 -9 1 -5 9 9 75 -40 72 -54 -1 -6 7 -12 17 -14 10 -1 26
-11 35 -20 15 -17 15 -17 -4 -3 -18 13 -19 13 -7 -3 8 -9 19 -15 26 -12 7 3
19 -3 27 -13 13 -17 13 -17 -6 -3 -17 12 -18 12 -7 0 7 -8 20 -15 30 -15 9 0
16 -6 15 -12 -2 -7 0 -12 5 -12 21 4 32 -2 26 -13 -4 -7 -4 -10 1 -6 11 10 47
-11 40 -22 -3 -6 0 -8 7 -5 7 3 24 -5 38 -16 14 -11 19 -17 11 -13 -9 5 -12 3
-7 -5 4 -6 11 -9 17 -6 10 7 82 -39 73 -47 -3 -3 3 -5 13 -4 10 0 17 -5 15
-12 -1 -8 2 -11 7 -8 13 8 42 -4 35 -15 -3 -5 -2 -9 3 -8 20 3 34 -2 28 -11
-3 -6 1 -7 9 -4 9 4 26 -6 42 -23 15 -15 24 -22 20 -16 -5 9 -2 11 8 7 9 -3
13 -11 9 -17 -3 -6 -1 -7 5 -3 6 4 25 0 42 -9 l30 -16 0 199 0 198 -30 29
c-16 16 -30 34 -30 39 0 6 11 -2 24 -19 l25 -30 -1 33 c-1 18 -5 35 -10 38 -4
3 -8 1 -8 -5 0 -6 -6 -8 -14 -5 -8 3 -17 0 -21 -6 -9 -15 -127 99 -118 114 3
6 2 8 -2 3 -11 -9 -115 92 -115 111 0 7 5 10 10 7 6 -4 8 -10 5 -15 -7 -11 20
-32 30 -22 5 4 5 1 0 -7 -6 -10 -4 -12 5 -6 9 6 11 4 5 -5 -6 -9 -4 -11 5 -5
9 6 11 4 5 -5 -6 -9 -4 -11 5 -5 9 6 11 4 5 -5 -6 -9 -4 -11 5 -5 8 5 11 4 6
-3 -3 -6 -2 -13 3 -16 5 -4 8 1 7 9 -3 23 -87 104 -101 99 -11 -5 -62 49 -150
161 -22 28 -32 44 -23 37 11 -9 18 -10 23 -2 4 6 3 10 -2 9 -20 -5 -47 18 -84
72 -22 33 -37 63 -34 68 3 6 0 13 -6 17 -8 4 -9 3 -5 -4 4 -7 5 -12 3 -12 -11
0 -47 73 -41 82 5 7 2 8 -6 3 -10 -6 -12 -4 -7 9 4 9 3 15 -2 12 -11 -7 -83
128 -74 138 3 3 0 6 -7 6 -7 0 -11 3 -7 6 3 4 -1 13 -9 21 -8 8 -12 19 -9 24
4 5 2 9 -4 9 -5 0 -25 41 -45 92 -27 70 -33 94 -24 100 9 5 7 8 -6 8 -13 0
-17 5 -13 20 3 11 2 18 -3 15 -9 -6 -52 137 -48 161 2 9 -4 18 -12 19 -9 2
-16 -5 -17 -14z"/>
<path d="M3801 6067 c-13 -21 -12 -21 5 -5 10 10 16 20 13 22 -3 3 -11 -5 -18
-17z"/>
<path d="M3865 5980 c-3 -5 -1 -10 4 -10 6 0 11 5 11 10 0 6 -2 10 -4 10 -3 0
-8 -4 -11 -10z"/>
<path d="M3422 5910 c0 -14 2 -19 5 -12 2 6 2 18 0 25 -3 6 -5 1 -5 -13z"/>
<path d="M3422 5800 c0 -14 2 -19 5 -12 2 6 2 18 0 25 -3 6 -5 1 -5 -13z"/>
<path d="M3385 5396 c10 -14 19 -26 22 -26 7 0 -17 39 -28 46 -6 3 -3 -5 6
-20z"/>
<path d="M2591 5337 c-6 -16 -11 -40 -11 -53 0 -14 -3 -23 -7 -21 -5 3 -6 -15
-4 -40 2 -25 -1 -43 -5 -40 -16 9 -8 -381 9 -473 25 -135 64 -257 117 -367 26
-56 45 -105 42 -109 -4 -4 -2 -4 4 -1 11 6 27 -16 21 -28 -1 -2 7 -11 18 -20
11 -9 13 -13 5 -10 -8 4 -1 -5 15 -20 17 -14 25 -24 18 -21 -6 4 -15 1 -19 -5
-4 -7 -3 -9 3 -6 15 9 83 -51 77 -68 -4 -8 -11 -12 -18 -8 -6 3 -7 2 -3 -3 8
-9 12 -10 38 -13 6 0 9 -7 6 -15 -8 -20 4 -28 21 -13 13 10 14 9 7 -2 -6 -11
-4 -13 7 -8 17 6 73 -45 61 -56 -13 -14 -25 -7 -18 11 5 13 4 14 -6 5 -10 -10
-9 -15 1 -28 13 -16 45 -21 35 -6 -3 5 -1 12 3 15 5 3 28 -12 51 -33 22 -21
41 -35 41 -32 0 11 24 -20 26 -34 1 -9 -17 0 -48 25 -28 22 -55 37 -61 33 -6
-4 -7 -1 -2 7 5 9 4 11 -4 6 -9 -6 -9 -11 0 -22 6 -8 14 -13 16 -10 10 10 54
-47 48 -62 -5 -14 -7 -14 -15 -2 -6 8 -10 13 -11 10 0 -3 -2 -15 -5 -27 -4
-21 4 -28 31 -24 6 1 2 -5 -8 -13 -10 -8 -28 -11 -40 -8 -12 3 -18 1 -14 -3 8
-10 28 -15 67 -18 15 -1 24 -7 22 -16 -1 -7 2 -19 8 -26 8 -10 8 -15 -1 -21
-7 -4 -9 -3 -6 3 3 5 -9 17 -27 25 -26 13 -33 13 -33 3 0 -8 7 -11 15 -7 10 3
13 1 8 -6 -5 -8 -1 -10 10 -5 10 4 15 2 11 -3 -6 -11 102 -69 110 -60 3 3 12
-2 20 -10 9 -8 22 -13 30 -10 8 3 12 2 9 -3 -7 -10 182 -83 195 -75 5 3 9 1 9
-4 0 -10 100 -43 112 -36 4 3 8 1 8 -4 0 -4 38 -23 85 -42 47 -18 88 -36 90
-40 8 -13 -6 -41 -16 -34 -5 3 -8 0 -7 -8 2 -7 -4 -12 -12 -10 -8 2 -12 0 -8
-4 4 -4 2 -14 -4 -23 -7 -9 -9 -13 -4 -9 5 4 15 1 22 -7 17 -17 18 -29 2 -19
-10 6 -10 4 -2 -7 5 -8 9 -24 8 -36 -1 -13 3 -20 9 -16 6 3 7 2 4 -4 -4 -6 0
-19 7 -29 9 -12 11 -25 5 -35 -12 -24 1 -32 22 -13 16 14 17 14 15 0 -1 -9
-13 -27 -26 -41 -13 -14 -20 -25 -15 -25 5 0 4 -5 -2 -11 -13 -13 -6 -42 8
-33 5 3 8 0 7 -7 -2 -7 2 -13 9 -14 6 0 14 -3 17 -7 3 -5 3 -6 -1 -3 -10 8
-33 -16 -26 -29 3 -6 2 -7 -3 -3 -5 5 -9 14 -9 20 -1 7 -7 11 -15 9 -12 -3
-12 -1 -3 9 8 8 9 18 3 30 -7 12 -6 20 0 24 8 5 7 12 -2 23 -8 10 -8 13 -1 9
11 -7 13 9 1 28 -3 6 -4 28 -3 49 2 26 0 34 -6 25 -8 -13 -14 -5 -9 16 1 5 -2
7 -6 3 -4 -4 -14 -2 -23 4 -9 7 -13 8 -9 4 4 -5 3 -15 -4 -23 -9 -11 -8 -13 2
-11 8 2 14 -3 15 -9 0 -7 4 -13 9 -12 12 1 26 -23 19 -34 -2 -4 -12 -2 -21 5
-10 8 -13 9 -9 1 4 -6 3 -15 -3 -18 -8 -5 -8 -11 -1 -19 6 -7 7 -17 3 -22 -4
-4 0 -3 9 4 17 13 29 7 29 -15 0 -7 -5 -12 -11 -11 -6 2 -13 -5 -14 -15 -3
-14 0 -15 9 -8 10 8 13 2 13 -26 0 -20 5 -39 11 -41 7 -2 9 -8 6 -13 -3 -6
-11 -6 -20 2 -7 6 -12 15 -9 18 2 4 -2 8 -10 8 -10 0 -12 -4 -5 -12 5 -7 6
-16 2 -20 -4 -5 -2 -5 4 -2 17 10 36 -39 20 -52 -24 -20 -258 57 -441 143 -61
29 -117 50 -124 48 -8 -3 -11 0 -7 6 3 6 2 13 -3 16 -5 4 -8 -1 -7 -9 3 -22
41 -46 61 -39 10 4 15 2 13 -7 -2 -8 5 -14 17 -14 11 -1 19 -7 17 -13 -1 -7 3
-12 10 -10 12 3 138 -69 138 -78 0 -3 -9 0 -20 6 -16 9 -20 8 -20 -5 0 -9 5
-13 10 -10 6 3 10 1 10 -5 0 -7 6 -8 19 -1 13 7 23 6 37 -4 19 -15 19 -15 0
-8 -13 4 -17 3 -12 -5 4 -7 2 -12 -4 -12 -7 0 -9 7 -5 18 5 13 3 14 -6 5 -14
-14 -2 -36 17 -29 8 3 14 1 14 -5 0 -6 5 -7 10 -4 6 4 17 2 25 -5 11 -10 37
-16 80 -19 6 -1 3 -6 -5 -12 -13 -9 -12 -10 2 -5 10 3 32 -1 50 -8 34 -15 208
-43 290 -48 l47 -3 1 345 c1 190 1 514 1 720 l-1 375 -70 28 c-39 16 -68 32
-65 37 6 10 -24 22 -36 14 -5 -3 -9 0 -9 6 0 6 -4 9 -9 5 -5 -3 -13 4 -16 15
-5 17 -10 19 -21 9 -11 -9 -14 -9 -14 0 0 7 -5 9 -11 6 -6 -4 -10 -1 -8 6 3
27 -1 40 -12 33 -8 -5 -8 -9 1 -14 9 -5 9 -9 1 -14 -6 -4 -11 -2 -11 4 0 6 -5
8 -11 4 -7 -4 -7 2 1 17 7 13 9 21 5 17 -4 -4 -21 2 -38 12 -22 14 -35 16 -48
9 -14 -7 -24 -4 -39 11 -11 11 -22 20 -25 20 -3 0 -8 0 -12 0 -5 0 -19 9 -32
19 -18 14 -21 20 -11 26 9 6 11 4 5 -5 -5 -9 -4 -11 3 -6 7 4 12 2 12 -4 0 -6
5 -8 12 -4 7 4 8 3 4 -4 -4 -7 -2 -12 3 -12 19 0 12 17 -12 33 -16 10 -28 12
-40 5 -13 -7 -19 -5 -23 6 -3 9 -10 14 -14 11 -5 -3 -11 -1 -14 4 -4 5 2 8 11
6 10 -2 22 -4 26 -4 5 -1 5 -6 1 -13 -5 -7 -3 -8 6 -3 14 9 -13 34 -79 74 -22
14 -38 28 -36 32 6 9 -23 32 -45 36 -14 2 -18 -2 -15 -18 4 -17 2 -19 -11 -8
-13 10 -13 14 0 28 12 13 12 18 0 29 -7 6 -16 12 -19 12 -3 0 -3 -6 1 -12 5
-9 3 -9 -9 1 -9 7 -14 18 -10 24 3 5 2 7 -4 4 -14 -9 -55 22 -47 35 4 6 2 8
-4 4 -6 -3 -13 -2 -17 3 -8 14 -36 1 -29 -13 4 -6 -45 40 -109 103 -64 63
-114 118 -112 122 3 4 -1 9 -8 12 -8 3 -33 29 -58 58 -40 48 -41 51 -14 34
l30 -19 -28 27 c-16 15 -25 32 -21 39 4 7 3 8 -5 4 -6 -4 -9 -12 -6 -17 4 -5
4 -9 1 -9 -3 0 -19 21 -37 47 -18 25 -26 43 -18 39 8 -4 3 1 -10 12 -15 12
-21 24 -16 32 5 8 4 11 -3 6 -6 -4 -22 12 -36 37 -25 43 -36 77 -15 47 9 -13
10 -13 6 0 -2 8 -10 15 -17 15 -8 0 -17 11 -21 25 l-6 25 -12 -28z m548 -624
c1 12 66 -44 66 -57 1 -6 7 -10 14 -8 7 1 10 -2 5 -9 -5 -9 -14 -4 -31 15 -12
15 -23 24 -23 20 0 -4 -11 3 -25 16 -14 13 -25 31 -24 39 0 12 3 11 9 -4 5
-11 9 -16 9 -12z m167 -113 c1 -6 2 -15 3 -21 0 -5 5 -8 10 -4 5 3 20 -9 33
-27 l23 -33 -49 35 c-47 34 -65 52 -49 49 20 -4 24 2 12 19 -11 15 -11 15 1 4
8 -7 16 -17 16 -22z m321 -225 c0 -10 -5 -11 -19 -4 -10 6 -16 14 -13 19 8 13
32 2 32 -15z m-456 -562 c13 -16 12 -17 -3 -4 -17 13 -22 21 -14 21 2 0 10 -8
17 -17z m56 -58 c0 -8 -4 -12 -9 -9 -5 4 -7 9 -4 12 3 3 -2 15 -11 26 -18 21
-18 21 3 3 11 -9 21 -24 21 -32z m32 -8 c8 -10 7 -14 -2 -14 -8 0 -14 6 -14
14 0 7 1 13 2 13 2 0 8 -6 14 -13z m42 -34 c13 -16 12 -17 -3 -4 -10 7 -18 15
-18 17 0 8 8 3 21 -13z m467 -365 c-2 -7 2 -12 8 -11 6 1 11 -4 11 -12 0 -8
-4 -12 -8 -10 -10 7 -16 -15 -14 -47 1 -15 -2 -25 -6 -23 -4 3 -10 -1 -13 -7
-2 -7 -3 -2 -1 12 2 14 4 25 5 25 1 0 3 10 6 22 3 18 0 21 -18 18 -21 -4 -21
-4 2 20 27 28 31 30 28 13z m68 -144 c0 -13 -6 -30 -14 -37 -11 -8 -14 -8 -9
0 4 6 3 14 -3 18 -6 4 -7 12 -3 18 4 7 8 15 9 20 1 4 2 10 3 14 3 15 15 -10
17 -33z m-123 -22 c15 -16 15 -19 2 -19 -8 0 -13 3 -10 5 3 3 0 11 -6 19 -17
20 -5 16 14 -5z m20 -78 c-3 -9 -23 -13 -36 -6 -4 2 -5 7 -2 12 7 11 41 6 38
-6z m72 -23 c-9 -8 -36 -10 -30 -2 2 4 11 8 20 8 8 0 13 -3 10 -6z m-21 -29
c3 -5 -1 -9 -9 -9 -8 0 -12 4 -9 9 3 4 7 8 9 8 2 0 6 -4 9 -8z m53 -55 c0 -8
-6 -14 -14 -14 -9 0 -10 4 -2 14 6 7 12 13 14 13 1 0 2 -6 2 -13z m-33 -25 c3
-5 -1 -9 -9 -9 -8 0 -12 4 -9 9 3 4 7 8 9 8 2 0 6 -4 9 -8z m-284 -108 c0 -2
-9 0 -20 6 -11 6 -20 13 -20 16 0 2 9 0 20 -6 11 -6 20 -13 20 -16z"/>
<path d="M3140 4706 c0 -2 8 -10 18 -17 15 -13 16 -12 3 4 -13 16 -21 21 -21
13z"/>
<path d="M3746 3332 c-3 -5 1 -9 9 -9 8 0 12 4 9 9 -3 4 -7 8 -9 8 -2 0 -6 -4
-9 -8z"/>
<path d="M3815 3201 c-3 -5 -2 -12 3 -15 5 -3 9 1 9 9 0 17 -3 19 -12 6z"/>
<path d="M3425 5336 c10 -14 19 -26 22 -26 7 0 -17 39 -28 46 -6 3 -3 -5 6
-20z"/>
<path d="M2656 5267 c3 -10 9 -15 12 -12 3 3 0 11 -7 18 -10 9 -11 8 -5 -6z"/>
<path d="M3517 5222 c12 -11 20 -22 18 -24 -3 -3 7 -15 22 -29 15 -13 22 -17
15 -8 -9 12 -9 19 1 29 10 12 9 12 -5 1 -10 -7 -19 -11 -19 -7 -1 3 -2 10 -3
16 0 5 -12 17 -26 26 l-25 16 22 -20z"/>
<path d="M2740 5140 c0 -5 5 -10 11 -10 5 0 7 5 4 10 -3 6 -8 10 -11 10 -2 0
-4 -4 -4 -10z"/>
<path d="M3599 5117 c17 -18 28 -24 35 -17 7 7 18 2 35 -13 l26 -22 -24 27
c-19 21 -27 25 -38 17 -13 -11 -18 -5 -13 16 1 6 -2 7 -6 3 -4 -4 -14 -2 -23
4 -9 7 -5 0 8 -15z"/>
<path d="M3840 5136 c0 -2 8 -10 18 -17 15 -13 16 -12 3 4 -13 16 -21 21 -21
13z"/>
<path d="M2830 5022 c0 -17 48 -54 55 -43 4 7 1 10 -7 9 -7 -2 -12 3 -10 10 1
6 -4 11 -10 10 -7 -2 -12 3 -10 10 1 6 -2 12 -8 12 -5 0 -10 -4 -10 -8z"/>
<path d="M2911 4947 c-8 -10 -3 -21 23 -46 22 -21 36 -29 41 -22 3 6 3 11 -2
10 -21 -4 -24 2 -12 19 12 15 12 16 -2 5 -13 -11 -19 -10 -33 5 -19 22 -10 37
13 19 14 -11 14 -10 2 6 -16 20 -16 20 -30 4z"/>
<path d="M3816 4889 c46 -47 70 -65 44 -34 -10 12 -10 15 0 15 10 0 10 3 0 15
-11 13 -15 13 -21 3 -8 -12 -10 -11 -13 12 -2 14 -24 34 -42 36 -10 2 3 -18
32 -47z m-5 24 c13 -16 12 -17 -3 -4 -17 13 -22 21 -14 21 2 0 10 -8 17 -17z"/>
<path d="M2994 4882 c3 -5 0 -12 -6 -15 -9 -3 -3 -14 16 -33 l28 -29 -17 27
c-9 15 -14 32 -11 37 4 5 1 13 -5 17 -7 4 -9 3 -5 -4z"/>
<path d="M3180 4886 c0 -2 8 -10 18 -17 15 -13 16 -12 3 4 -13 16 -21 21 -21
13z"/>
<path d="M3046 4802 c-3 -5 8 -22 24 -37 17 -16 30 -27 31 -24 0 2 2 12 4 22
3 14 0 16 -9 8 -18 -15 -28 -1 -14 18 7 9 8 13 4 9 -5 -4 -15 -3 -22 3 -7 5
-15 6 -18 1z"/>
<path d="M3505 4450 c-4 -6 -3 -10 2 -9 21 4 34 -2 27 -13 -4 -7 -3 -8 5 -4 9
6 9 11 0 22 -14 17 -25 18 -34 4z"/>
<path d="M3930 4315 c0 -14 -3 -25 -7 -25 -5 0 -13 -11 -20 -25 -6 -14 -7 -23
-2 -19 5 3 9 0 9 -5 0 -6 7 -11 15 -11 12 0 15 13 15 55 0 30 -2 55 -5 55 -3
0 -5 -11 -5 -25z"/>
<path d="M6601 4306 c-9 -10 -9 -16 -1 -21 8 -5 8 -11 -1 -21 -10 -12 -9 -17
1 -27 10 -9 11 -9 6 1 -4 6 0 19 9 28 11 11 13 20 5 28 -5 7 -7 16 -3 19 3 4
4 7 1 7 -3 0 -11 -6 -17 -14z"/>
<path d="M6717 4281 c-6 -9 -7 -13 -2 -8 12 10 56 -33 48 -47 -3 -6 -2 -7 3
-3 4 4 9 23 9 41 1 27 -2 32 -22 32 -13 0 -29 -7 -36 -15z m38 1 c-3 -3 0 -11
6 -19 17 -20 5 -16 -14 5 -15 16 -15 19 -2 19 8 0 13 -3 10 -5z"/>
<path d="M2329 4167 c33 -35 56 -52 32 -24 -6 8 -9 17 -6 20 3 4 2 5 -2 2 -3
-3 -18 5 -32 17 -14 13 -10 6 8 -15z"/>
<path d="M2291 4165 c0 -5 6 -21 14 -35 8 -14 14 -20 14 -15 0 6 -6 21 -14 35
-8 14 -14 21 -14 15z"/>
<path d="M6616 4108 c3 -5 10 -6 15 -3 13 9 11 12 -6 12 -8 0 -12 -4 -9 -9z"/>
<path d="M2416 4088 c3 -5 10 -6 15 -3 13 9 11 12 -6 12 -8 0 -12 -4 -9 -9z"/>
<path d="M2821 4091 c-9 -6 -10 -11 -2 -15 6 -4 11 -2 11 5 0 7 9 5 23 -7 l22
-19 -19 23 c-11 12 -20 22 -20 22 -1 0 -7 -4 -15 -9z"/>
<path d="M2471 4044 c6 -7 16 -11 21 -8 11 7 3 17 -18 20 -12 2 -13 -1 -3 -12z"/>
<path d="M6715 4020 c-4 -6 -10 -8 -15 -5 -5 3 -11 2 -14 -3 -2 -4 6 -8 18 -8
12 0 23 6 23 13 0 16 -4 16 -12 3z"/>
<path d="M2361 4015 c0 -5 6 -21 14 -35 8 -14 14 -20 14 -15 0 6 -6 21 -14 35
-8 14 -14 21 -14 15z"/>
<path d="M2546 4002 c-3 -6 1 -15 8 -21 8 -7 17 -8 20 -3 3 6 -1 15 -8 21 -8
7 -17 8 -20 3z"/>
<path d="M2947 3973 c5 -12 3 -14 -7 -8 -8 5 -11 4 -6 -3 4 -6 13 -9 22 -5 11
4 12 9 3 19 -15 19 -20 18 -12 -3z"/>
<path d="M2586 3971 c-4 -5 -2 -12 3 -15 5 -4 12 -2 15 3 4 5 2 12 -3 15 -5 4
-12 2 -15 -3z"/>
<path d="M2616 3951 c-4 -5 -2 -12 3 -15 5 -4 12 -2 15 3 4 5 2 12 -3 15 -5 4
-12 2 -15 -3z"/>
<path d="M2400 3931 c0 -6 4 -13 10 -16 6 -3 7 1 4 9 -7 18 -14 21 -14 7z"/>
<path d="M3010 3926 c0 -2 8 -10 18 -17 15 -13 16 -12 3 4 -13 16 -21 21 -21
13z"/>
<path d="M2683 3905 c0 -8 4 -12 9 -9 5 3 6 10 3 15 -9 13 -12 11 -12 -6z"/>
<path d="M2706 3891 c-4 -5 -2 -12 3 -15 5 -4 12 -2 15 3 4 5 2 12 -3 15 -5 4
-12 2 -15 -3z"/>
<path d="M3050 3896 c0 -2 8 -10 18 -17 15 -13 16 -12 3 4 -13 16 -21 21 -21
13z"/>
<path d="M2736 3871 c-4 -5 -2 -12 3 -15 5 -4 12 -2 15 3 4 5 2 12 -3 15 -5 4
-12 2 -15 -3z"/>
<path d="M2785 3840 c-8 -13 9 -20 24 -11 10 6 9 10 -3 14 -8 3 -18 2 -21 -3z"/>
<path d="M3003 3817 c0 -8 6 -14 14 -14 7 0 13 6 13 14 0 7 -6 13 -13 13 -8 0
-14 -6 -14 -13z"/>
<path d="M2817 3809 c13 -12 31 -15 30 -4 -1 5 -10 10 -20 10 -10 1 -14 -2
-10 -6z"/>
<path d="M2885 3781 c-7 -13 26 -30 44 -23 9 3 11 0 6 -8 -6 -9 -4 -11 5 -5
18 11 -16 36 -38 28 -10 -4 -13 -2 -8 5 4 7 5 12 2 12 -3 0 -7 -4 -11 -9z"/>
<path d="M2975 3731 c-3 -5 -2 -12 3 -15 5 -3 9 1 9 9 0 17 -3 19 -12 6z"/>
<path d="M3003 3714 c0 -7 6 -15 12 -18 6 -2 12 2 12 10 0 7 -6 15 -12 18 -6
2 -12 -2 -12 -10z"/>
<path d="M2536 3691 c-4 -5 -2 -12 3 -15 5 -4 12 -2 15 3 4 5 2 12 -3 15 -5 4
-12 2 -15 -3z"/>
<path d="M2660 3536 c0 -2 8 -10 18 -17 15 -13 16 -12 3 4 -13 16 -21 21 -21
13z"/>
<path d="M2735 3450 c10 -11 20 -20 23 -20 3 0 -3 9 -13 20 -10 11 -20 20 -23
20 -3 0 3 -9 13 -20z"/>
<path d="M3715 3379 c-3 -4 2 -6 10 -5 21 3 28 13 10 13 -9 0 -18 -4 -20 -8z"/>
<path d="M2879 3307 c6 -8 9 -16 6 -19 -3 -2 2 -5 10 -5 13 0 13 3 -2 19 -19
21 -31 25 -14 5z"/>
<path d="M3000 3206 c0 -2 8 -10 18 -17 15 -13 16 -12 3 4 -13 16 -21 21 -21
13z"/>
<path d="M3036 3171 c-4 -5 -2 -12 3 -15 5 -4 12 -2 15 3 4 5 2 12 -3 15 -5 4
-12 2 -15 -3z"/>
<path d="M3743 3159 c-2 -23 3 -25 10 -4 4 8 3 16 -1 19 -4 3 -9 -4 -9 -15z"/>
<path d="M2704 3119 c32 -17 61 -28 64 -25 3 3 0 6 -7 6 -7 0 -9 5 -6 10 6 9
-8 14 -28 11 -4 -1 -21 6 -37 14 -16 8 -33 15 -37 15 -4 -1 18 -15 51 -31z"/>
<path d="M3076 3141 c-4 -5 -2 -12 3 -15 5 -4 12 -2 15 3 4 5 2 12 -3 15 -5 4
-12 2 -15 -3z"/>
<path d="M3106 3122 c-3 -5 1 -9 9 -9 8 0 12 4 9 9 -3 4 -7 8 -9 8 -2 0 -6 -4
-9 -8z"/>
<path d="M3748 3119 c6 -9 8 -20 4 -25 -4 -5 3 0 16 10 12 11 22 21 22 24 0 2
-6 0 -13 -7 -10 -8 -17 -7 -27 2 -12 10 -12 9 -2 -4z"/>
<path d="M2830 3060 c8 -5 20 -10 25 -10 6 0 3 5 -5 10 -8 5 -19 10 -25 10 -5
0 -3 -5 5 -10z"/>
<path d="M2900 3030 c8 -5 20 -10 25 -10 6 0 3 5 -5 10 -8 5 -19 10 -25 10 -5
0 -3 -5 5 -10z"/>
<path d="M3232 3023 c-9 -3 -7 -10 9 -24 26 -23 25 -23 32 -5 3 8 -1 13 -11
12 -9 0 -16 5 -14 12 1 6 1 12 0 11 -2 0 -9 -3 -16 -6z"/>
<path d="M2950 3010 c8 -5 20 -10 25 -10 6 0 3 5 -5 10 -8 5 -19 10 -25 10 -5
0 -3 -5 5 -10z"/>
<path d="M3002 3001 c-10 -6 -5 -11 19 -20 18 -6 34 -9 37 -7 2 3 -7 8 -22 12
-14 3 -23 10 -20 15 6 11 3 11 -14 0z"/>
<path d="M3285 2981 c-3 -7 0 -8 10 -5 11 5 14 2 9 -10 -5 -12 0 -15 19 -14
14 1 23 6 21 10 -3 4 -11 5 -20 1 -9 -3 -14 0 -12 7 4 16 -18 25 -27 11z"/>
</g>
</svg>
